<svg xmlns="http://www.w3.org/2000/svg" viewBox="0 0 13 13"><defs><style>.cls-1{fill:#f25f5f;}</style></defs><title>icon-exclamation</title>
 <g id="Layer_2" data-name="Layer 2">
   <g id="BILLING_-_PAID_PLAN" data-name="BILLING - PAID PLAN">
     <path class="cls-1" d="M6.5,13a6.38,6.38,0,0,1-3.26-.88A6.46,6.46,0,0,1,.87,9.76,6.37,6.37,0,0,1,0,6.5,6.38,6.38,0,0,1,.87,3.23,6.54,6.54,0,0,1,3.24.87h0a6.52,6.52,0,0,1,8.89,2.36A6.4,6.4,0,0,1,13,6.5a6.37,6.37,0,0,1-.87,3.26,6.46,6.46,0,0,1-2.37,2.36A6.38,6.38,0,0,1,6.5,13ZM3.74,1.73a5.51,5.51,0,0,0-2,2A5.36,5.36,0,0,0,1,6.5a5.41,5.41,0,0,0,.74,2.76,5.48,5.48,0,0,0,2,2,5.55,5.55,0,0,0,5.52,0,5.48,5.48,0,0,0,2-2A5.41,5.41,0,0,0,12,6.5a5.36,5.36,0,0,0-.74-2.76,5.51,5.51,0,0,0-2-2,5.6,5.6,0,0,0-5.52,0Z"/>
     <path class="cls-1" d="M7.48,7.55,7.62,2.7a.15.15,0,0,0-.07-.14.33.33,0,0,0-.19-.06H5.64a.31.31,0,0,0-.19.06.16.16,0,0,0-.08.14l.14,4.85a.16.16,0,0,0,.08.14.28.28,0,0,0,.18.06H7.22a.28.28,0,0,0,.18-.06A.19.19,0,0,0,7.48,7.55Z"/>
     <path class="cls-1" d="M7.5,10.24V8.75a.24.24,0,0,0-.07-.18.22.22,0,0,0-.17-.07H5.76a.24.24,0,0,0-.18.07.29.29,0,0,0-.08.18v1.49a.27.27,0,0,0,.26.26h1.5a.23.23,0,0,0,.17-.08A.24.24,0,0,0,7.5,10.24Z"/>
   </g>
 </g>
</svg>
