<svg xmlns="http://www.w3.org/2000/svg" viewBox="0 0 38.7 20.99"><defs><style>.cls-1{fill:#4e7fff;}.cls-2{fill:#fff;}</style></defs><title>icon-card-american-express</title><g id="Layer_2" data-name="Layer 2"><g id="BILLING_-_CHOOSE_A_PLAN" data-name="BILLING - CHOOSE A PLAN"><rect class="cls-1" width="38.7" height="20.99" rx="2" ry="2"/><path class="cls-2" d="M3.49,7.58,2.74,5.77,2,7.58m17.89-.72a1,1,0,0,1-.54.09H18v-1h1.34a1.14,1.14,0,0,1,.51.08.42.42,0,0,1,.23.4A.48.48,0,0,1,19.89,6.86Zm9.42.72-.75-1.81-.75,1.81Zm-17.57,2H10.63V6L9.05,9.54h-1L6.51,6V9.54H4.3l-.42-1H1.62l-.43,1H0L2,5H3.58L5.43,9.3V5H7.2L8.62,8.08,9.93,5h1.81V9.54Zm4.45,0H12.55V5h3.64v1H13.64v.82h2.49v.93H13.64V8.6h2.55Zm5.12-3.32a1.27,1.27,0,0,1-.77,1.21,1.29,1.29,0,0,1,.54.38,1.35,1.35,0,0,1,.18.84v.89h-1.1V9A1.37,1.37,0,0,0,20,8.08c-.16-.16-.4-.19-.79-.19H18V9.54H16.94V5h2.5a2.59,2.59,0,0,1,1.32.22A1.07,1.07,0,0,1,21.31,6.22Zm1.74,3.32H21.94V5h1.11Zm12.87,0H34.38L32.32,6.13V9.54H30.11l-.43-1H27.42l-.41,1H25.74A2.27,2.27,0,0,1,24.16,9a2.31,2.31,0,0,1-.58-1.74,2.43,2.43,0,0,1,.59-1.78A2.21,2.21,0,0,1,25.82,5h1.05V6h-1a1,1,0,0,0-.83.27,1.47,1.47,0,0,0-.32,1A1.59,1.59,0,0,0,25,8.34a1.05,1.05,0,0,0,.76.23h.49L27.77,5H29.4L31.24,9.3V5H32.9l1.91,3.17V5h1.11V9.54ZM0,10.44H1.86l.42-1h.94l.41,1H7.29V9.66l.33.78H9.51l.33-.79v.79h9.09V8.78h.18c.12,0,.16,0,.16.22v1.44H24v-.39a3.76,3.76,0,0,0,1.74.39h2l.42-1H29l.41,1h3.81v-1l.58,1h3V4.09h-3v.75l-.42-.75h-3.1v.75L30,4.09H25.77A3.78,3.78,0,0,0,24,4.46V4.09H21.07v.37a1.81,1.81,0,0,0-1.23-.37H9.28L8.57,5.73,7.84,4.09H4.52v.75l-.37-.75H1.32L0,7.11v3.33Z"/><path class="cls-2" d="M38.7,13.79h-2a.72.72,0,0,0-.44.09.35.35,0,0,0-.16.32.35.35,0,0,0,.24.34,1.27,1.27,0,0,0,.42.05l.59,0a1.67,1.67,0,0,1,1.23.37.57.57,0,0,1,.11.11m0,1.7a1.7,1.7,0,0,1-1.48.59h-2.1v-1h2.09a.65.65,0,0,0,.44-.11.4.4,0,0,0,.13-.3.37.37,0,0,0-.13-.3.57.57,0,0,0-.39-.1c-1,0-2.29,0-2.29-1.41a1.36,1.36,0,0,1,1.56-1.36H38.7v-.9h-2a2.23,2.23,0,0,0-1.36.37v-.37h-3a2.11,2.11,0,0,0-1.3.37v-.37H25.73v.37a2.88,2.88,0,0,0-1.47-.37H20.75v.37a2.48,2.48,0,0,0-1.53-.37H15.3l-.9,1-.84-1H7.69v6.35h5.76l.92-1,.87,1h3.55V16.78h.35a3.65,3.65,0,0,0,1.51-.22v1.71h2.93V16.61h.14c.18,0,.2,0,.2.19v1.47H32.8a2.45,2.45,0,0,0,1.48-.41v.41H37.1A3.81,3.81,0,0,0,38.7,18V16.79ZM34.36,15a1.25,1.25,0,0,1,.32,1c0,1-.61,1.44-1.71,1.44H30.86v-1H33a.66.66,0,0,0,.44-.11.44.44,0,0,0,.13-.3.4.4,0,0,0-.13-.3.59.59,0,0,0-.39-.1c-1,0-2.29,0-2.29-1.41a1.35,1.35,0,0,1,1.55-1.36h2.18v1h-2a.71.71,0,0,0-.44.09.33.33,0,0,0-.16.32.35.35,0,0,0,.24.34,1.2,1.2,0,0,0,.42.05l.58,0A1.74,1.74,0,0,1,34.36,15Zm-9.82-.29a1,1,0,0,1-.53.1H22.68v-1H24a1,1,0,0,1,.52.08.43.43,0,0,1,.23.41A.48.48,0,0,1,24.54,14.69Zm.66.57a1.19,1.19,0,0,1,.53.38,1.27,1.27,0,0,1,.18.83v.91H24.82v-.57c0-.28,0-.68-.18-.89s-.4-.21-.79-.21H22.68v1.67H21.59V12.82H24.1a2.71,2.71,0,0,1,1.31.22,1.07,1.07,0,0,1,.56,1A1.26,1.26,0,0,1,25.2,15.26Zm1.37-2.44H30.2v.95H27.66v.82h2.48v.93H27.66v.91H30.2v.95H26.57Zm-7.33,2.11H17.83V13.77h1.42c.39,0,.66.16.66.55S19.65,14.93,19.24,14.93Zm-2.49,2-1.67-1.85,1.67-1.8Zm-4.32-.53H9.76v-.91h2.39v-.93H9.76v-.82h2.73l1.19,1.32Zm8.65-2.11c0,1.27-.94,1.53-1.89,1.53H17.83v1.53H15.72l-1.34-1.51L13,17.38H8.68V12.82h4.37l1.34,1.5,1.38-1.5h3.48C20.11,12.82,21.08,13.06,21.08,14.32Z"/></g></g></svg>