<svg xmlns="http://www.w3.org/2000/svg" viewBox="0 0 38.7 20.99"><defs><style>.cls-1{fill:#4e7fff;}.cls-2{fill:#fff;}</style></defs><title>icon-card-discover</title><g id="Layer_2" data-name="Layer 2"><g id="BILLING_-_CHOOSE_A_PLAN" data-name="BILLING - CHOOSE A PLAN"><rect class="cls-1" width="38.7" height="20.99" rx="2" ry="2"/><path class="cls-2" d="M33.83,5.54h.34c0-.07-.07-.15-.06-.21,0-.24-.08-.24-.25-.2l0,.13Z"/><path class="cls-2" d="M17.4,7.39A2.54,2.54,0,1,0,20,4.91,2.54,2.54,0,0,0,17.4,7.39Z"/><path class="cls-2" d="M27.24,5.05V9.8h2.61V9H28.18V7.72h1.6V6.89H28.19v-1h1.65V5.05Z"/><path class="cls-2" d="M9.79,9a1.89,1.89,0,0,0,1.9.9,1.5,1.5,0,0,0,1.38-1.3,1.28,1.28,0,0,0-.9-1.54c-.28-.12-.56-.23-.83-.37S11,6.48,11,6.21a.54.54,0,0,1,.45-.44,1,1,0,0,1,1,.33l.47-.61A2,2,0,0,0,11.09,5,1.32,1.32,0,0,0,10,6.22a1.14,1.14,0,0,0,.84,1.27l.77.32c.41.19.54.43.44.79a.66.66,0,0,1-.83.45,5.44,5.44,0,0,1-1-.51Z"/><path class="cls-2" d="M22.21,5.07q1,2.32,1.9,4.6c.07.17.14.28.36.29s.31-.11.38-.29q.9-2.16,1.82-4.32c0-.09.06-.19.1-.31a4.34,4.34,0,0,1-.63,0c-.27,0-.39.08-.49.33-.32.84-.66,1.67-1,2.5,0,.11-.09.21-.16.37-.34-.84-.65-1.63-1-2.41s-.34-.84-1.25-.77Z"/><path class="cls-2" d="M17.09,8.59a1.67,1.67,0,0,1-2.23.07,1.77,1.77,0,0,1-.26-2.14,1.53,1.53,0,0,1,1.16-.73,1.72,1.72,0,0,1,1.36.54c0-.45.06-.93-.12-1.1A1.52,1.52,0,0,0,15.66,5h0a2.5,2.5,0,0,0-2.19,3,2.54,2.54,0,0,0,3.19,1.87c.35-.1.52-.25.46-.63A4.12,4.12,0,0,1,17.09,8.59Z"/><path class="cls-2" d="M9.41,9.81V5.06H8.53V9.81Z"/><path class="cls-2" d="M38.7,20.68l-.32.31H13.63v-.06c.84-.16,1.69-.31,2.53-.48A72.17,72.17,0,0,0,37,12.89c.59-.33,1.16-.68,1.74-1Z"/><path class="cls-2" d="M17.4,7.39A2.54,2.54,0,1,1,19.88,10,2.52,2.52,0,0,1,17.4,7.39Z"/><path class="cls-2" d="M4.13,9.77V5.05A4.93,4.93,0,0,1,7,5.47,2.33,2.33,0,0,1,8,7.92,2.3,2.3,0,0,1,6.08,9.76,18,18,0,0,1,4.13,9.77Zm1-.76A1.76,1.76,0,0,0,6.85,8.3a1.6,1.6,0,0,0,0-1.79,1.72,1.72,0,0,0-1.74-.65Z"/><path class="cls-2" d="M34,9.81c-1.1.06-1.1.06-1.67-.77l-.76-1.11-.11,0V9.8h-.92V5a18.37,18.37,0,0,1,2.1.15,1.19,1.19,0,0,1,1,1.23,1.27,1.27,0,0,1-.88,1.37l-.19.07Zm-2.53-4V7.23c.39,0,.77,0,1-.31a.68.68,0,0,0,0-.79C32.26,5.76,31.86,5.79,31.45,5.8Z"/><path class="cls-2" d="M27.24,5.05h2.6v.79H28.19v1h1.59v.83h-1.6V9h1.67V9.8H27.24Z"/><path class="cls-2" d="M9.79,9l.49-.47a5.44,5.44,0,0,0,1,.51.66.66,0,0,0,.83-.45c.1-.36,0-.6-.44-.79l-.77-.32A1.14,1.14,0,0,1,10,6.22,1.32,1.32,0,0,1,11.09,5a2,2,0,0,1,1.83.47l-.47.61a1,1,0,0,0-1-.33.54.54,0,0,0-.45.44c0,.27.13.4.33.49s.55.25.83.37a1.28,1.28,0,0,1,.9,1.54,1.5,1.5,0,0,1-1.38,1.3A1.89,1.89,0,0,1,9.79,9Z"/><path class="cls-2" d="M22.21,5.07l.07,0c.91-.07.91-.07,1.25.77s.62,1.57,1,2.41c.07-.16.12-.26.16-.37.34-.83.68-1.66,1-2.5.1-.25.22-.36.49-.33a4.34,4.34,0,0,0,.63,0c0,.12-.06.22-.1.31q-.92,2.16-1.82,4.32c-.07.18-.15.29-.38.29s-.29-.12-.36-.29Q23.18,7.39,22.21,5.07Z"/><path class="cls-2" d="M17.09,8.59a4.12,4.12,0,0,0,0,.61c.06.38-.11.53-.46.63A2.54,2.54,0,0,1,13.44,8a2.5,2.5,0,0,1,2.19-3h0A1.52,1.52,0,0,1,17,5.23c.18.17.09.65.12,1.1a1.72,1.72,0,0,0-1.36-.54,1.53,1.53,0,0,0-1.16.73,1.77,1.77,0,0,0,.26,2.14A1.67,1.67,0,0,0,17.09,8.59Z"/><path class="cls-2" d="M9.41,9.81H8.53V5.06h.88Z"/><path class="cls-2" d="M33.83,5.54V5.25l0-.13c.17,0,.29,0,.25.2,0,.06,0,.14.06.21ZM34,5.23l0,0h0Z"/><path class="cls-2" d="M33.83,5.54h0Z"/><polygon class="cls-2" points="33.99 5.23 33.99 5.21 34.01 5.21 33.99 5.23"/></g></g></svg>