<svg xmlns="http://www.w3.org/2000/svg" viewBox="0 0 38.7 20.99"><defs><style>.cls-1{fill:#4e7fff;}.cls-2{fill:#fff;}</style></defs><title>icon-card-visa</title><g id="Layer_2" data-name="Layer 2"><g id="BILLING_-_CHOOSE_A_PLAN" data-name="BILLING - CHOOSE A PLAN"><rect class="cls-1" width="38.7" height="20.99" rx="2" ry="2"/><g id="g10"><g id="g4163"><g id="g12"><path id="path14" class="cls-2" d="M14.84,14.78l1.4-8.54h2.23l-1.4,8.54H14.84"/></g><g id="g16"><path id="path18" class="cls-2" d="M25.19,6.45a5.43,5.43,0,0,0-2-.36c-2.21,0-3.77,1.16-3.78,2.82,0,1.23,1.11,1.91,2,2.32s1.17.68,1.16,1.06c0,.57-.69.83-1.34.83a4.5,4.5,0,0,1-2.1-.45l-.29-.13-.31,1.91a6.73,6.73,0,0,0,2.49.46c2.35,0,3.88-1.15,3.89-2.92,0-1-.58-1.71-1.87-2.32-.79-.4-1.27-.66-1.26-1.06s.4-.74,1.28-.74a4.12,4.12,0,0,1,1.68.33l.2.1.3-1.85"/></g><g id="g20"><path id="path22" class="cls-2" d="M28.17,11.75l.89-2.39.3-.81.15.73L30,11.75Zm2.76-5.51H29.2A1.11,1.11,0,0,0,28,7L24.7,14.78h2.35s.39-1,.47-1.28h2.87c.07.3.27,1.28.27,1.28h2.08L30.93,6.24"/></g><g id="g24"><path id="path26" class="cls-2" d="M13,6.24l-2.19,5.83-.24-1.19A6.53,6.53,0,0,0,7.43,7.3l2,7.47h2.37l3.52-8.53H13"/></g><g id="g28"><path id="path30" class="cls-2" d="M8.74,6.24H5.13l0,.17a7.47,7.47,0,0,1,5.43,4.47L9.75,7a.94.94,0,0,0-1-.72"/></g><g id="g32"><path id="path34" class="cls-2" d="M33.38,14.22h.1c.08,0,.09,0,.09-.08s0-.07-.1-.07h-.09Zm-.1-.22h.22s.17,0,.17.14,0,.08-.09.12h0c.07,0,.07.07.07.11s0,.09,0,.12h-.09s0,0,0-.11,0-.09-.11-.09h-.07v.2h-.1Zm.19.66a.41.41,0,1,0-.41-.41A.4.4,0,0,0,33.47,14.66Zm0-.9a.49.49,0,1,1-.5.49.49.49,0,0,1,.5-.49"/></g></g></g></g></g></svg>